<svg width="74" height="19" viewBox="0 0 74 19" fill="none" xmlns="http://www.w3.org/2000/svg">
<path d="M26.4863 14.6289V16H21.9453V14.6289H26.4863ZM22.5195 7.46875V16H20.7617V7.46875H22.5195ZM25.8945 10.9434V12.2793H21.9453V10.9434H25.8945ZM26.4805 7.46875V8.8457H21.9453V7.46875H26.4805ZM29.1875 7V16H27.4941V7H29.1875ZM37.1738 7.46875V16H35.4219V7.46875H37.1738ZM39.7988 7.46875V8.8457H32.8379V7.46875H39.7988ZM42.5176 9.66016V16H40.8242V9.66016H42.5176ZM40.877 8.89258L42.0254 7.08789H43.8594L42.248 8.89258H40.877ZM43.707 12.8945V12.7715C43.707 12.3066 43.7734 11.8789 43.9062 11.4883C44.0391 11.0938 44.2324 10.752 44.4863 10.4629C44.7402 10.1738 45.0527 9.94922 45.4238 9.78906C45.7949 9.625 46.2207 9.54297 46.7012 9.54297C47.1816 9.54297 47.6094 9.625 47.9844 9.78906C48.3594 9.94922 48.6738 10.1738 48.9277 10.4629C49.1855 10.752 49.3809 11.0938 49.5137 11.4883C49.6465 11.8789 49.7129 12.3066 49.7129 12.7715V12.8945C49.7129 13.3555 49.6465 13.7832 49.5137 14.1777C49.3809 14.5684 49.1855 14.9102 48.9277 15.2031C48.6738 15.4922 48.3613 15.7168 47.9902 15.877C47.6191 16.0371 47.1934 16.1172 46.7129 16.1172C46.2324 16.1172 45.8047 16.0371 45.4297 15.877C45.0586 15.7168 44.7441 15.4922 44.4863 15.2031C44.2324 14.9102 44.0391 14.5684 43.9062 14.1777C43.7734 13.7832 43.707 13.3555 43.707 12.8945ZM45.3945 12.7715V12.8945C45.3945 13.1602 45.418 13.4082 45.4648 13.6387C45.5117 13.8691 45.5859 14.0723 45.6875 14.248C45.793 14.4199 45.9297 14.5547 46.0977 14.6523C46.2656 14.75 46.4707 14.7988 46.7129 14.7988C46.9473 14.7988 47.1484 14.75 47.3164 14.6523C47.4844 14.5547 47.6191 14.4199 47.7207 14.248C47.8223 14.0723 47.8965 13.8691 47.9434 13.6387C47.9941 13.4082 48.0195 13.1602 48.0195 12.8945V12.7715C48.0195 12.5137 47.9941 12.2715 47.9434 12.0449C47.8965 11.8145 47.8203 11.6113 47.7148 11.4355C47.6133 11.2559 47.4785 11.1152 47.3105 11.0137C47.1426 10.9121 46.9395 10.8613 46.7012 10.8613C46.4629 10.8613 46.2598 10.9121 46.0918 11.0137C45.9277 11.1152 45.793 11.2559 45.6875 11.4355C45.5859 11.6113 45.5117 11.8145 45.4648 12.0449C45.418 12.2715 45.3945 12.5137 45.3945 12.7715ZM57.166 12.959H54.9922V11.5879H57.166C57.502 11.5879 57.7754 11.5332 57.9863 11.4238C58.1973 11.3105 58.3516 11.1543 58.4492 10.9551C58.5469 10.7559 58.5957 10.5312 58.5957 10.2812C58.5957 10.0273 58.5469 9.79102 58.4492 9.57227C58.3516 9.35352 58.1973 9.17773 57.9863 9.04492C57.7754 8.91211 57.502 8.8457 57.166 8.8457H55.6016V16H53.8438V7.46875H57.166C57.834 7.46875 58.4062 7.58984 58.8828 7.83203C59.3633 8.07031 59.7305 8.40039 59.9844 8.82227C60.2383 9.24414 60.3652 9.72656 60.3652 10.2695C60.3652 10.8203 60.2383 11.2969 59.9844 11.6992C59.7305 12.1016 59.3633 12.4121 58.8828 12.6309C58.4062 12.8496 57.834 12.959 57.166 12.959ZM64.3086 16.1172C63.8164 16.1172 63.375 16.0391 62.9844 15.8828C62.5938 15.7227 62.2617 15.502 61.9883 15.2207C61.7188 14.9395 61.5117 14.6133 61.3672 14.2422C61.2227 13.8672 61.1504 13.4688 61.1504 13.0469V12.8125C61.1504 12.332 61.2188 11.8926 61.3555 11.4941C61.4922 11.0957 61.6875 10.75 61.9414 10.457C62.1992 10.1641 62.5117 9.93945 62.8789 9.7832C63.2461 9.62305 63.6602 9.54297 64.1211 9.54297C64.5703 9.54297 64.9688 9.61719 65.3164 9.76562C65.6641 9.91406 65.9551 10.125 66.1895 10.3984C66.4277 10.6719 66.6074 11 66.7285 11.3828C66.8496 11.7617 66.9102 12.1836 66.9102 12.6484V13.3516H61.8711V12.2266H65.252V12.0977C65.252 11.8633 65.209 11.6543 65.123 11.4707C65.041 11.2832 64.916 11.1348 64.748 11.0254C64.5801 10.916 64.3652 10.8613 64.1035 10.8613C63.8809 10.8613 63.6895 10.9102 63.5293 11.0078C63.3691 11.1055 63.2383 11.2422 63.1367 11.418C63.0391 11.5938 62.9648 11.8008 62.9141 12.0391C62.8672 12.2734 62.8438 12.5312 62.8438 12.8125V13.0469C62.8438 13.3008 62.8789 13.5352 62.9492 13.75C63.0234 13.9648 63.127 14.1504 63.2598 14.3066C63.3965 14.4629 63.5605 14.584 63.752 14.6699C63.9473 14.7559 64.168 14.7988 64.4141 14.7988C64.7188 14.7988 65.002 14.7402 65.2637 14.623C65.5293 14.502 65.7578 14.3203 65.9492 14.0781L66.7695 14.9688C66.6367 15.1602 66.4551 15.3438 66.2246 15.5195C65.998 15.6953 65.7246 15.8398 65.4043 15.9531C65.084 16.0625 64.7188 16.1172 64.3086 16.1172ZM72.916 14.6816V16H68.0996V14.6816H72.916ZM72.8223 10.6328L68.7793 16H67.6484V14.998L71.6738 9.66016H72.8223V10.6328ZM72.2246 9.66016V10.9844H67.7422V9.66016H72.2246Z" fill="white"/>
<path d="M22.3965 1.73438H23.2197L23.2227 4.69043C23.2207 4.89355 23.1816 5.07909 23.1055 5.24706C23.0312 5.41308 22.9287 5.55664 22.7979 5.67773C22.667 5.79883 22.5127 5.89257 22.335 5.95897C22.1592 6.02538 21.9697 6.05859 21.7666 6.05859C21.5518 6.05859 21.3564 6.03124 21.1807 5.97655C21.0049 5.92187 20.8545 5.83984 20.7295 5.73047C20.6025 5.62305 20.5039 5.48729 20.4336 5.32323C20.3633 5.15917 20.3271 4.96679 20.3252 4.74608H21.1514C21.1514 4.84765 21.1611 4.93652 21.1807 5.0127C21.2002 5.08887 21.2295 5.15331 21.2686 5.20604C21.3193 5.2705 21.3857 5.31835 21.4678 5.3496C21.5498 5.38085 21.6494 5.39648 21.7666 5.39648C21.8604 5.39648 21.9463 5.3789 22.0244 5.34374C22.1025 5.30663 22.1689 5.25684 22.2236 5.19434C22.2783 5.13184 22.3203 5.05762 22.3496 4.97168C22.3809 4.88379 22.3965 4.79004 22.3965 4.69043V1.73438ZM25.785 6L25.7381 5.55468C25.6307 5.71288 25.5008 5.8369 25.3484 5.92675C25.198 6.01659 25.033 6.06151 24.8533 6.06151C24.6893 6.06151 24.5389 6.03612 24.4021 5.98534C24.2654 5.93456 24.1482 5.85351 24.0506 5.74218C23.9529 5.6328 23.8768 5.49315 23.8221 5.32323C23.7693 5.15136 23.743 4.94531 23.743 4.70508V2.83008H24.5574V4.71093C24.5574 4.83983 24.5662 4.94823 24.5838 5.03612C24.6033 5.12401 24.6336 5.19433 24.6746 5.24706C24.7156 5.30175 24.7693 5.34082 24.8357 5.36426C24.9021 5.3877 24.9832 5.3994 25.0789 5.3994C25.1648 5.3994 25.242 5.39062 25.3104 5.37305C25.3807 5.35547 25.4422 5.33007 25.4949 5.29687C25.5398 5.26757 25.5799 5.23242 25.615 5.19141C25.6502 5.15039 25.6805 5.10448 25.7059 5.0537V2.83008H26.5232V6H25.785ZM29.0006 6C28.9811 5.96094 28.9645 5.91601 28.9508 5.86522C28.9371 5.81444 28.9254 5.76074 28.9156 5.7041C28.8707 5.75293 28.8189 5.79882 28.7604 5.84179C28.7018 5.88476 28.6373 5.92188 28.567 5.95312C28.4947 5.98633 28.4156 6.01171 28.3297 6.02929C28.2438 6.04882 28.151 6.05859 28.0514 6.05859C27.8893 6.05859 27.7398 6.03515 27.6031 5.98827C27.4684 5.9414 27.3521 5.87597 27.2545 5.79198C27.1568 5.708 27.0807 5.60839 27.026 5.49315C26.9713 5.37597 26.9439 5.24901 26.9439 5.11229C26.9439 4.93651 26.9781 4.78125 27.0465 4.64648C27.1148 4.50977 27.2174 4.39745 27.3541 4.30956C27.4771 4.22948 27.6285 4.16895 27.8082 4.12793C27.9898 4.08496 28.1979 4.06347 28.4322 4.06347H28.8863V3.87597C28.8863 3.80175 28.8746 3.73534 28.8512 3.67675C28.8277 3.6162 28.7926 3.56445 28.7457 3.52148C28.6969 3.47656 28.6354 3.44238 28.5611 3.41895C28.4889 3.39355 28.4039 3.38086 28.3063 3.38086C28.2203 3.38086 28.1461 3.39159 28.0836 3.41308C28.0211 3.43261 27.9703 3.46093 27.9313 3.49804C27.8961 3.53124 27.8697 3.57129 27.8521 3.61816C27.8365 3.66504 27.8287 3.71679 27.8287 3.77343H27.0143C27.0143 3.63866 27.0436 3.51074 27.1021 3.38965C27.1627 3.26855 27.2506 3.16211 27.3658 3.07031C27.4791 2.97852 27.6178 2.90624 27.7818 2.85351C27.9479 2.79882 28.1373 2.77148 28.3502 2.77148C28.5416 2.77148 28.7193 2.79491 28.8834 2.84179C29.0494 2.88866 29.193 2.958 29.3141 3.04979C29.4352 3.14159 29.5299 3.2578 29.5982 3.39843C29.6666 3.5371 29.7008 3.69823 29.7008 3.88183V5.2412C29.7008 5.41112 29.7115 5.55176 29.733 5.66309C29.7545 5.77441 29.7857 5.87012 29.8268 5.9502V6H29.0006ZM28.2242 5.4287C28.3063 5.4287 28.3824 5.41894 28.4527 5.3994C28.523 5.37987 28.5865 5.35448 28.6432 5.32323C28.6998 5.29198 28.7486 5.25684 28.7896 5.21777C28.8307 5.17676 28.8629 5.13573 28.8863 5.09472V4.54979H28.4703C28.3434 4.54979 28.235 4.5625 28.1451 4.58789C28.0553 4.61133 27.982 4.64452 27.9254 4.68749C27.8688 4.73241 27.8268 4.78612 27.7994 4.84862C27.7721 4.90917 27.7584 4.97559 27.7584 5.04785C27.7584 5.10449 27.7682 5.15722 27.7877 5.20604C27.8092 5.25292 27.8395 5.29296 27.8785 5.32616C27.9176 5.35741 27.9654 5.3828 28.0221 5.40233C28.0807 5.41991 28.148 5.4287 28.2242 5.4287ZM30.3236 6V2.83008H31.0619L31.1117 3.26953C31.1527 3.21094 31.1977 3.15723 31.2465 3.1084C31.2953 3.05957 31.3471 3.01562 31.4018 2.97656C31.4955 2.91016 31.598 2.85937 31.7094 2.82421C31.8207 2.78905 31.9389 2.77148 32.0639 2.77148C32.224 2.77148 32.3705 2.79491 32.5033 2.84179C32.6361 2.88866 32.7514 2.96289 32.849 3.06445C32.9447 3.16797 33.0189 3.30077 33.0717 3.46288C33.1264 3.62304 33.1537 3.81836 33.1537 4.04883V6H32.3393V4.06055C32.3393 3.93555 32.3246 3.833 32.2953 3.75292C32.268 3.67089 32.2279 3.60645 32.1752 3.55957C32.1225 3.5127 32.059 3.48046 31.9848 3.46288C31.9105 3.44335 31.8266 3.43358 31.7328 3.43358C31.6547 3.43358 31.5824 3.44237 31.516 3.45995C31.4516 3.47753 31.3939 3.50391 31.3432 3.53906C31.3021 3.56445 31.265 3.59472 31.2318 3.62987C31.1986 3.66503 31.1684 3.7041 31.141 3.74707V6H30.3236ZM35.6105 1.73438H36.4338L36.4367 4.69043C36.4348 4.89355 36.3957 5.07909 36.3195 5.24706C36.2453 5.41308 36.1428 5.55664 36.0119 5.67773C35.8811 5.79883 35.7268 5.89257 35.549 5.95897C35.3732 6.02538 35.1838 6.05859 34.9807 6.05859C34.7658 6.05859 34.5705 6.03124 34.3947 5.97655C34.2189 5.92187 34.0686 5.83984 33.9436 5.73047C33.8166 5.62305 33.718 5.48729 33.6477 5.32323C33.5773 5.15917 33.5412 4.96679 33.5393 4.74608H34.3654C34.3654 4.84765 34.3752 4.93652 34.3947 5.0127C34.4143 5.08887 34.4436 5.15331 34.4826 5.20604C34.5334 5.2705 34.5998 5.31835 34.6818 5.3496C34.7639 5.38085 34.8635 5.39648 34.9807 5.39648C35.0744 5.39648 35.1604 5.3789 35.2385 5.34374C35.3166 5.30663 35.383 5.25684 35.4377 5.19434C35.4924 5.13184 35.5344 5.05762 35.5637 4.97168C35.5949 4.88379 35.6105 4.79004 35.6105 4.69043V1.73438ZM36.8193 4.38573C36.8193 4.15526 36.8525 3.94238 36.9189 3.74707C36.9854 3.5498 37.083 3.3789 37.2119 3.23438C37.3389 3.08984 37.4941 2.97656 37.6777 2.89453C37.8633 2.8125 38.0752 2.77148 38.3135 2.77148C38.5518 2.77148 38.7637 2.8125 38.9492 2.89453C39.1348 2.97656 39.292 3.08984 39.4209 3.23438C39.5479 3.3789 39.6445 3.5498 39.7109 3.74707C39.7773 3.94238 39.8105 4.15526 39.8105 4.38573V4.44726C39.8105 4.67968 39.7773 4.89453 39.7109 5.0918C39.6445 5.28711 39.5479 5.45703 39.4209 5.60156C39.2939 5.74609 39.1377 5.85938 38.9521 5.94141C38.7666 6.02148 38.5557 6.06151 38.3193 6.06151C38.0811 6.06151 37.8682 6.02148 37.6807 5.94141C37.4951 5.85938 37.3389 5.74609 37.2119 5.60156C37.083 5.45703 36.9854 5.28711 36.9189 5.0918C36.8525 4.89453 36.8193 4.67968 36.8193 4.44726V4.38573ZM37.6338 4.44726C37.6338 4.58007 37.6465 4.70507 37.6719 4.82226C37.6973 4.93749 37.7373 5.03809 37.792 5.12402C37.8467 5.21191 37.917 5.28124 38.0029 5.33202C38.0908 5.3828 38.1963 5.40819 38.3193 5.40819C38.4385 5.40819 38.541 5.3828 38.627 5.33202C38.7129 5.28124 38.7832 5.21191 38.8379 5.12402C38.8906 5.03809 38.9297 4.93749 38.9551 4.82226C38.9805 4.70507 38.9932 4.58007 38.9932 4.44726V4.38573C38.9932 4.25683 38.9805 4.13476 38.9551 4.01952C38.9297 3.90429 38.8906 3.80272 38.8379 3.71483C38.7832 3.62694 38.7129 3.55761 38.627 3.50683C38.541 3.45604 38.4365 3.43066 38.3135 3.43066C38.1924 3.43066 38.0889 3.45604 38.0029 3.50683C37.917 3.55761 37.8467 3.62694 37.792 3.71483C37.7373 3.80272 37.6973 3.90429 37.6719 4.01952C37.6465 4.13476 37.6338 4.25683 37.6338 4.38573V4.44726Z" fill="white"/>
<path fill-rule="evenodd" clip-rule="evenodd" d="M5.60945 7.4397C9.69855 5.16609 15.0811 6.27794 17.6316 9.92308L17.4301 10.1979C16.9452 10.8299 16.358 11.395 15.6869 11.8748C12.2566 14.327 7.38426 14.0939 4.26682 11.4888C3.76699 12.6376 2.46999 13.4127 1.01864 13.3188L0.884766 13.3077V13.1052C0.884766 11.8915 1.48084 10.7828 2.44668 10.0242C1.5488 9.40323 0.957483 8.45276 0.891023 7.38407L0.884766 7.18236V6.53846L1.06746 6.54501C2.43995 6.62432 3.61508 7.37436 4.16981 8.44118C4.60728 8.06457 5.09017 7.72843 5.60945 7.4397ZM10.6132 13.578L10.7291 13.573C10.0866 14.1434 9.29884 14.5767 8.40238 14.8113C7.70587 14.9936 7.00486 15.0399 6.32885 14.967C6.65895 14.3694 6.91497 13.7304 7.08858 13.0647C8.21221 13.4509 9.4144 13.6244 10.6132 13.578ZM11.4734 6.23035L11.5647 6.35278C9.83739 6.11335 8.02281 6.33301 6.36781 7.06275C5.86205 6.11013 5.18367 5.27972 4.38465 4.60113C4.7294 4.43027 5.09857 4.29073 5.48831 4.18873C7.78861 3.5867 10.1381 4.46709 11.4734 6.23035Z" stroke="white" stroke-linecap="round"/>
<path d="M13.665 9.18575V9.10718" stroke="white" stroke-linecap="round" stroke-linejoin="round"/>
<path d="M16 12C15.3333 12 14 11.7 14 10.5" stroke="white" stroke-width="0.6" stroke-linecap="round" stroke-linejoin="round"/>
</svg>
